<?xml version="1.0" ?><svg data-name="Layer 1" id="Layer_1" viewBox="0 0 512 512" xmlns="http://www.w3.org/2000/svg"><path d="M256,103.56c-3.56,0-7.1.1-10.61.27a19.57,19.57,0,0,0-31.17-9,19.54,19.54,0,0,0-31.13-2.67,19.57,19.57,0,0,0-33.46,7.93,19.57,19.57,0,0,0-29.8,16.69v36.36a211.75,211.75,0,0,0-76,162.53,5,5,0,0,0,10,0,201.59,201.59,0,0,1,65.92-149.18V174a281,281,0,0,0-1.1,43,168.22,168.22,0,0,0-31.91,98.76,5,5,0,1,0,10,0A158.06,158.06,0,0,1,120.1,233c3.44,28.91,11,46.45,13.16,51V421.31a5,5,0,0,0,10,0V287.88h90.15l13,133.91a5,5,0,0,0,5,4.54l.49,0a5,5,0,0,0,4.51-5.48l-13.16-136c19.11-18.48,26.28-43.8,27.75-49.72l28.84-34.81a4,4,0,0,0,.49-.68l.08-.13.13-.26.08-.17c0-.08.07-.17.1-.26l.06-.17c0-.1.06-.19.08-.28l0-.17c0-.1,0-.2.05-.3l0-.15,0-.33s0-.08,0-.12v-.41l-1.24-34.18c66.53,19.07,115.36,80.43,115.36,153a5,5,0,1,0,10,0c0-79.74-55.46-146.77-129.83-164.55l-18.5-26.42a5,5,0,0,0-6.42-1.58c-6.06,3.13-12.53,9.7-11.92,23.4-.84,0-1.67,0-2.51,0q-4.86,0-9.66.29v-33c3.2-.16,6.42-.25,9.66-.25,111.43,0,202.09,90.66,202.09,202.09a5,5,0,1,0,10,0C468.13,198.72,373,103.56,256,103.56Zm-19.7,65.62H217.22V128.11H236.3Zm-48.19,0V128.11h19.07v41.07Zm-29.12,0V128.11h19.07v41.07Zm-29.11,0V128.11h19.06v41.07Zm96.88-68.85a9.56,9.56,0,0,1,9.54,9.54v8.19H217.22v-8.19A9.55,9.55,0,0,1,226.76,100.33Zm-29.11-4.62a9.56,9.56,0,0,1,9.53,9.54v12.81H188.11V105.25A9.56,9.56,0,0,1,197.65,95.71ZM159,105.25a9.54,9.54,0,1,1,19.07,0v12.81H159V105.25Zm-19.58,2a9.53,9.53,0,0,1,9.53,9.53v1.26H129.88V116.8A9.53,9.53,0,0,1,139.41,107.27ZM236,277.84H141.51c-4.09-9.61-16.7-44.37-12.08-98.62H239.09l9.71,16L261.15,233C259.69,238.62,252.9,261.65,236,277.84Zm35-99.16,18.19,18.65-21,25.3-9.22-27.91Zm.56-43.92,18,25.76.86,23.71L274.73,168C272.93,164.25,263.91,143.93,271.63,134.76ZM256,156.55c1.34,0,2.67,0,4,.06a81.78,81.78,0,0,0,4.74,13.77L254,184.69l-7.7-12.88V156.86C249.54,156.66,252.76,156.55,256,156.55Z"/><path d="M150.72,250.62h21.82a5,5,0,0,0,0-10.05H150.72a5,5,0,1,0,0,10.05Z"/><path d="M183.08,259.2H150.72a5,5,0,1,0,0,10h32.36a5,5,0,1,0,0-10Z"/></svg>